<svg width="14" height="12" viewBox="0 0 14 12" fill="none" xmlns="http://www.w3.org/2000/svg">
<path fill-rule="evenodd" clip-rule="evenodd" d="M12.6869 1.02006C12.8821 0.824795 12.8821 0.508213 12.6869 0.312951C12.4916 0.117688 12.175 0.117688 11.9798 0.312951L1.31311 10.9796C1.11785 11.1749 1.11785 11.4915 1.31311 11.6867C1.50838 11.882 1.82496 11.882 2.02022 11.6867L3.91815 9.78879C4.82902 10.2176 5.87813 10.4998 7 10.4998C8.78934 10.4998 10.3936 9.78178 11.5471 8.89648C12.1249 8.45298 12.6021 7.95821 12.9393 7.47241C13.2671 7.00003 13.5 6.48164 13.5 5.99984C13.5 5.51804 13.2671 4.99965 12.9393 4.52727C12.6021 4.04147 12.1249 3.54669 11.5471 3.10319C11.3723 2.96907 11.1872 2.83879 10.9927 2.71426L12.6869 1.02006ZM10.2664 3.44059L9.0858 4.62114C9.34756 5.01636 9.5 5.4903 9.5 5.99984C9.5 7.38055 8.38071 8.49984 7 8.49984C6.49046 8.49984 6.01652 8.3474 5.62131 8.08564L4.67683 9.03012C5.38718 9.31951 6.17475 9.49984 7 9.49984C8.52437 9.49984 9.92015 8.88456 10.9382 8.10319C11.4461 7.71336 11.8476 7.29147 12.1177 6.90227C12.3971 6.49965 12.5 6.1847 12.5 5.99984C12.5 5.81497 12.3971 5.50003 12.1177 5.09741C11.8476 4.70821 11.4461 4.28632 10.9382 3.89648C10.7294 3.73624 10.5048 3.58298 10.2664 3.44059ZM6.35329 7.35365C6.54911 7.44736 6.76843 7.49984 7 7.49984C7.82843 7.49984 8.5 6.82826 8.5 5.99984C8.5 5.76826 8.44752 5.54895 8.35381 5.35313L6.35329 7.35365Z" fill="#8892B5"/>
<path d="M7 1.49984C7.64028 1.49984 8.25687 1.59178 8.83757 1.75043C9.01693 1.79943 9.07021 2.02252 8.93874 2.154L8.51768 2.57506C8.45583 2.63691 8.36623 2.66156 8.28084 2.64259C7.86857 2.55101 7.43963 2.49984 7 2.49984C5.47564 2.49984 4.07986 3.11512 3.06178 3.89648C2.55385 4.28632 2.15238 4.70821 1.88228 5.09741C1.60287 5.50003 1.5 5.81497 1.5 5.99984C1.5 6.1847 1.60287 6.49965 1.88228 6.90227C2.10447 7.22244 2.41557 7.56473 2.8017 7.8931C2.91616 7.99044 2.92728 8.16546 2.82103 8.27171L2.46802 8.62472C2.37771 8.71503 2.23351 8.72308 2.13647 8.64004C1.69977 8.26636 1.33418 7.86643 1.06074 7.47241C0.732914 7.00003 0.5 6.48164 0.5 5.99984C0.5 5.51804 0.732914 4.99965 1.06074 4.52727C1.39787 4.04147 1.87508 3.54669 2.45294 3.10319C3.60644 2.21789 5.21066 1.49984 7 1.49984Z" fill="#8892B5"/>
<path d="M7 3.49984C7.02745 3.49984 7.0548 3.50028 7.08204 3.50116C7.27964 3.50753 7.35173 3.74101 7.21193 3.88081L6.51159 4.58115C6.07605 4.73106 5.73122 5.07589 5.58131 5.51143L4.88097 6.21177C4.74117 6.35157 4.50769 6.27947 4.50132 6.08187C4.50044 6.05464 4.5 6.02729 4.5 5.99984C4.5 4.61913 5.61929 3.49984 7 3.49984Z" fill="#8892B5"/>
</svg>
