<svg width="10" height="14" viewBox="0 0 10 14" fill="none" xmlns="http://www.w3.org/2000/svg">
<path d="M4.00004 9.66657C4.00004 9.11429 4.44776 8.66657 5.00004 8.66657C5.55233 8.66657 6.00004 9.11429 6.00004 9.66657C6.00004 10.2189 5.55233 10.6666 5.00004 10.6666C4.44776 10.6666 4.00004 10.2189 4.00004 9.66657Z" fill="#8892B5"/>
<path fill-rule="evenodd" clip-rule="evenodd" d="M2.08114 6.06467L1.87085 4.17202C1.84389 3.92937 1.84389 3.68448 1.87085 3.44183L1.88602 3.30523C2.04702 1.8563 3.18608 0.709863 4.63394 0.539527C4.87716 0.510913 5.12289 0.510913 5.36611 0.539527C6.81396 0.709863 7.95303 1.8563 8.11402 3.30523L8.1292 3.44183C8.15616 3.68448 8.15616 3.92937 8.1292 4.17202L7.91891 6.06467L8.37664 6.10121C9.09846 6.15883 9.68786 6.70144 9.80487 7.41603C10.0489 8.90647 10.0489 10.4267 9.80487 11.9171C9.68786 12.6317 9.09846 13.1743 8.37664 13.2319L7.37922 13.3116C5.79563 13.438 4.20448 13.438 2.62089 13.3116L1.62347 13.2319C0.901657 13.1743 0.312253 12.6317 0.195243 11.9171C-0.0488049 10.4267 -0.0488049 8.90647 0.195243 7.41603C0.312253 6.70144 0.901656 6.15883 1.62347 6.10121L2.08114 6.06467ZM4.75078 1.53268C4.91637 1.5132 5.08368 1.5132 5.24927 1.53268C6.23502 1.64865 7.01053 2.42918 7.12014 3.41566L7.13532 3.55226C7.15412 3.72151 7.15412 3.89233 7.13532 4.06159L6.92121 5.98856C5.64175 5.90617 4.3583 5.90617 3.07884 5.98856L2.86473 4.06159C2.84592 3.89233 2.84592 3.72151 2.86473 3.55226L2.87991 3.41566C2.98952 2.42918 3.76503 1.64865 4.75078 1.53268ZM7.29964 7.01841C5.76902 6.89622 4.23109 6.89622 2.70047 7.01841L1.70305 7.09804C1.43977 7.11906 1.22478 7.31697 1.1821 7.57762C0.955576 8.96105 0.955576 10.3721 1.1821 11.7555C1.22478 12.0162 1.43977 12.2141 1.70305 12.2351L2.70047 12.3147C4.23109 12.4369 5.76902 12.4369 7.29964 12.3147L8.29706 12.2351C8.56035 12.2141 8.77534 12.0162 8.81802 11.7555C9.04454 10.3721 9.04454 8.96105 8.81802 7.57762C8.77534 7.31697 8.56035 7.11906 8.29706 7.09804L7.29964 7.01841Z" fill="#8892B5"/>
</svg>
