<svg width="12" height="12" viewBox="0 0 12 12" fill="none" xmlns="http://www.w3.org/2000/svg">
<path fill-rule="evenodd" clip-rule="evenodd" d="M3.16683 3.00008C3.16683 1.43527 4.43536 0.166748 6.00016 0.166748C7.56497 0.166748 8.8335 1.43527 8.8335 3.00008C8.8335 4.56489 7.56497 5.83342 6.00016 5.83342C4.43536 5.83342 3.16683 4.56489 3.16683 3.00008ZM6.00016 1.16675C4.98764 1.16675 4.16683 1.98756 4.16683 3.00008C4.16683 4.0126 4.98764 4.83342 6.00016 4.83342C7.01268 4.83342 7.8335 4.0126 7.8335 3.00008C7.8335 1.98756 7.01268 1.16675 6.00016 1.16675Z" fill="#8892B5"/>
<path fill-rule="evenodd" clip-rule="evenodd" d="M3.3335 7.83342C2.50507 7.83342 1.8335 8.50499 1.8335 9.33342V10.1256C1.8335 10.1377 1.84224 10.148 1.85414 10.1499C4.59998 10.5982 7.40035 10.5982 10.1462 10.1499C10.1581 10.148 10.1668 10.1377 10.1668 10.1256V9.33342C10.1668 8.50499 9.49526 7.83342 8.66683 7.83342H8.43958C8.42201 7.83342 8.40455 7.83619 8.38785 7.84165L7.81084 8.03006C6.63429 8.41424 5.36604 8.41424 4.18949 8.03006L3.61248 7.84165C3.59577 7.83619 3.57831 7.83342 3.56074 7.83342H3.3335ZM0.833496 9.33342C0.833496 7.9527 1.95278 6.83342 3.3335 6.83342H3.56074C3.68374 6.83342 3.80596 6.85286 3.92288 6.89104L4.49989 7.07945C5.47474 7.39777 6.52558 7.39777 7.50044 7.07945L8.07745 6.89104C8.19437 6.85286 8.31659 6.83342 8.43958 6.83342H8.66683C10.0475 6.83342 11.1668 7.9527 11.1668 9.33342V10.1256C11.1668 10.6278 10.8029 11.0559 10.3073 11.1368C7.45476 11.6025 4.54556 11.6025 1.69301 11.1368C1.19742 11.0559 0.833496 10.6278 0.833496 10.1256V9.33342Z" fill="#8892B5"/>
</svg>
